<?xml version="1.0" encoding="iso-8859-1"?>
<!-- Generator: Adobe Illustrator 19.0.0, SVG Export Plug-In . SVG Version: 6.00 Build 0)  -->
<svg version="1.1" id="Capa_1" xmlns="http://www.w3.org/2000/svg" xmlns:xlink="http://www.w3.org/1999/xlink" x="0px" y="0px"
	 viewBox="0 0 512 512" style="enable-background:new 0 0 512 512;" xml:space="preserve">
<g>
	<g>
		<g>
			<path d="M256,0C161.896,0,85.333,76.563,85.333,170.667c0,28.26,7.063,56.271,20.479,81.115L246.666,506.5
				c1.875,3.396,5.459,5.5,9.334,5.5s7.458-2.104,9.333-5.51l140.875-254.802c13.396-24.729,20.458-52.75,20.458-81.021
				C426.667,76.563,350.104,0,256,0z M387.5,241.458L256,479.292l-131.479-237.75c-11.667-21.635-17.854-46.146-17.854-70.875
				c0-82.344,67-149.333,149.333-149.333s149.333,66.99,149.333,149.333C405.333,195.406,399.146,219.917,387.5,241.458z"/>
			<path d="M256,53.333c-64.688,0-117.333,52.635-117.333,117.333S191.313,288,256,288s117.333-52.635,117.333-117.333
				S320.688,53.333,256,53.333z M256,266.667c-52.938,0-96-43.063-96-96s43.063-96,96-96s96,43.063,96,96
				S308.938,266.667,256,266.667z"/>
			<path d="M298.667,160h-32v-32c0-5.896-4.771-10.667-10.667-10.667s-10.667,4.771-10.667,10.667v32h-32
				c-5.896,0-10.667,4.771-10.667,10.667c0,5.896,4.771,10.667,10.667,10.667h32v32c0,5.896,4.771,10.667,10.667,10.667
				s10.667-4.771,10.667-10.667v-32h32c5.896,0,10.667-4.771,10.667-10.667C309.333,164.771,304.563,160,298.667,160z"/>
		</g>
	</g>
</g>
<g>
</g>
<g>
</g>
<g>
</g>
<g>
</g>
<g>
</g>
<g>
</g>
<g>
</g>
<g>
</g>
<g>
</g>
<g>
</g>
<g>
</g>
<g>
</g>
<g>
</g>
<g>
</g>
<g>
</g>
</svg>
