<svg height="512" viewBox="0 0 512 512" width="512" xmlns="http://www.w3.org/2000/svg"><g id="_29-world_time" data-name="29-world time"><g id="linear_color" data-name="linear color"><path d="m495.307 335.7a253.465 253.465 0 0 0 6.147-136.51c4.022-13.206 6.328-26.211 6.328-38.687 0-85.971-69.942-155.913-155.913-155.913a155.507 155.507 0 0 0 -41.915 5.73 253.484 253.484 0 0 0 -53.944-5.82 250.084 250.084 0 0 0 -160.945 58.083c-.1.085-.207.17-.308.259q-8.757 7.316-16.939 15.471a250.348 250.348 0 0 0 -73.808 178.187c0 1.4.028 2.8.051 4.2v.43a251.894 251.894 0 0 0 280.573 245.728 11.9 11.9 0 0 0 1.657-.19 252.22 252.22 0 0 0 208.9-170.592c.038-.117.074-.235.113-.351zm-11.3-79.2a228.7 228.7 0 0 1 -6.166 52.864l-13.341-13.349a12 12 0 0 0 -6.513-3.352l-6.174-1.029a426.916 426.916 0 0 0 31.7-50.11c.321 4.976.497 9.976.497 14.976zm-28.932 111.25-3.681-11.045a12 12 0 0 0 -9.031-7.972l-31.6-6.321c7.947-8.955 16.281-18.761 24.594-29.188l14.887 2.48 19.73 19.731a226.91 226.91 0 0 1 -14.899 32.315zm28.707-207.25c0 40.908-30.319 90.6-62.739 132.05q-.234.282-.451.578a794.725 794.725 0 0 1 -68.725 76.07c-16.4-15.923-54.6-54.677-85.7-98.826a12.067 12.067 0 0 0 -1.521-2.174c-18.951-27.223-35.032-56.37-41.562-83.411a11.893 11.893 0 0 0 -.52-2.2 101.78 101.78 0 0 1 -2.611-22.09c0-72.737 59.176-131.913 131.913-131.913s131.916 59.182 131.916 131.916zm-255.76 94.916-33.222-22.144-5.068-25.337 13.593-5.437c5.722 17.586 14.4 35.478 24.697 52.921zm-196.734 39.647 7.845 8.619a12 12 0 0 0 5.964 3.563l28.721 7.181c8.6 8.89 16.612 18.723 18.239 22.449.972 12.325 16.171 17.153 33.04 21.37 8.282 2.07 16.466 3.666 21.1 4.516l14.7 14.7-19.18 31.969a11.987 11.987 0 0 0 -1.555 4.248l-5.785 35.583a228.5 228.5 0 0 1 -103.089-154.198zm125.384 166.637 6.809-41.892 22.819-38.031a12 12 0 0 0 -1.805-14.659l-24-24a12.009 12.009 0 0 0 -6.511-3.351c-15.969-2.666-32.78-6.944-38.93-9.788-1.975-5.847-8.024-16.326-26.559-34.861a12 12 0 0 0 -5.575-3.156l-28.479-7.12-26.422-29.024a227.346 227.346 0 0 1 69.947-163.491l1.085 3.255-13.778 27.555a11.994 11.994 0 0 0 -.908 2.456l-8 32a12 12 0 0 0 1.352 9.084l23.083 38.469 15.567 62.267a12 12 0 0 0 4.442 6.69l32 24a11.954 11.954 0 0 0 1.834 1.133l71.8 35.9-6.2 31.012a12.014 12.014 0 0 0 -.233 2.354v40a12 12 0 0 0 6.634 10.733l41.366 20.683v40.582a11.966 11.966 0 0 0 .463 3.3l.095.334c-4.169.231-8.354.363-12.555.363a226.627 226.627 0 0 1 -99.341-22.797zm136.1 19.782-.76-2.657v-46.325a12 12 0 0 0 -6.634-10.733l-41.366-20.683v-31.4l7.766-38.835a12 12 0 0 0 -6.4-13.086l-79.031-39.516-27.727-20.8-14.967-59.866a11.992 11.992 0 0 0 -1.351-3.264l-21.443-35.738 6.475-25.9 15.411-30.822a12 12 0 0 0 .651-9.161l-5.766-17.269a226.825 226.825 0 0 1 138.38-46.927q6.225 0 12.434.344a155.931 155.931 0 0 0 -72.488 131.656 115.662 115.662 0 0 0 1.557 18.471l-25.96 10.384a12 12 0 0 0 -7.31 13.5l8 40a11.993 11.993 0 0 0 5.111 7.63l48 32a12 12 0 0 0 4.821 1.875l18.6 2.877c40.99 57.663 91.454 104.143 95.003 107.383a12 12 0 0 0 16.182 0c1.72-1.57 14.466-13.3 31.806-31.533l39.062 7.814 7.5 22.511a228.78 228.78 0 0 1 -145.561 88.065z"/><path d="m351.869 265.174a108 108 0 1 0 -108-108 108.122 108.122 0 0 0 108 108zm-12-191.129v11.129a12 12 0 0 0 24 0v-11.129a84.17 84.17 0 0 1 71.131 71.129h-11.131a12 12 0 0 0 0 24h11.131a84.171 84.171 0 0 1 -71.131 71.126v-11.126a12 12 0 1 0 -24 0v11.126a84.172 84.172 0 0 1 -71.129-71.129h11.129a12 12 0 0 0 0-24h-11.129a84.171 84.171 0 0 1 71.129-71.126z"/><path d="m314.5 151.907 32 16a12 12 0 0 0 13.851-2.248l32-32a12 12 0 1 0 -16.97-16.971l-25.881 25.884-24.265-12.132a12 12 0 0 0 -10.735 21.467z"/></g></g></svg>