<svg id="Capa_1" enable-background="new 0 0 512 512" height="512" viewBox="0 0 512 512" width="512" xmlns="http://www.w3.org/2000/svg"><g><path d="m501.75 105.75c-6.61-6.61-15.4-10.25-24.75-10.25h-390c-9.35 0-18.14 3.64-24.75 10.25s-10.25 15.4-10.25 24.75v102.303c-7.208 3.952-13.944 8.784-19.962 14.37-3.418 3.172-4.189 8.286-1.86 12.326l12.214 21.177c-2.146 3.107-4.032 6.38-5.648 9.801h-24.504c-4.665 0-8.71 3.226-9.749 7.773-1.653 7.238-2.491 14.724-2.491 22.249s.838 15.011 2.491 22.249c1.039 4.548 5.084 7.773 9.749 7.773h24.434c1.623 3.301 3.672 6.812 5.7 9.824l-12.197 21.155c-2.329 4.04-1.557 9.152 1.86 12.324 10.972 10.183 24.295 17.871 38.532 22.234 4.456 1.367 9.265-.527 11.593-4.566l12.199-21.156c3.759.308 7.527.309 11.285.005l12.202 21.153c1.822 3.159 5.162 5.004 8.663 5.004.977 0 1.966-.144 2.938-.442 14.243-4.379 27.561-12.067 38.514-22.232.746-.692 1.358-1.481 1.847-2.327h307.19c9.35 0 18.14-3.64 24.75-10.25 6.6-6.61 10.25-15.4 10.25-24.75v-28.28c0-5.52-4.49-10.01-10-10.01s-9.99 4.48-10 9.99v.02 28.28c-.021 8.26-6.74 14.99-15 15h-312.946l-6.446-11.176c2.146-3.107 4.032-6.38 5.649-9.801h24.503c4.666 0 8.711-3.226 9.749-7.774 1.653-7.238 2.491-14.724 2.491-22.248s-.838-15.01-2.491-22.248c-1.038-4.548-5.083-7.774-9.749-7.774h-24.298c-1.58-3.343-3.612-6.917-5.731-10.007l12.092-20.973c2.329-4.04 1.557-9.152-1.86-12.324-10.972-10.183-24.296-17.871-38.533-22.234-4.453-1.366-9.265.528-11.593 4.566l-12.199 21.156c-3.757-.308-7.526-.309-11.284-.005l-12.202-21.153c-2.079-3.605-6.135-5.493-10.152-4.885v-20.118h420v33.71c0 5.52 4.49 10.01 10 10.01 5.52 0 10-4.49 10-10.01v-107.709c0-9.35-3.65-18.14-10.25-24.75zm-414.75 9.75h390c8.26.02 14.979 6.75 15 15v9h-420v-9c.01-8.25 6.74-14.98 15-15zm-6.632 150.936c2.118 3.672 6.323 5.609 10.488 4.835 6.061-1.126 12.207-1.123 18.27.008 4.167.777 8.378-1.16 10.498-4.835l11.357-19.696c6.151 2.589 11.996 5.964 17.335 10.012l-11.368 19.717c-2.505 4.346-1.396 9.848 2.529 12.893 1.944 2.035 6.422 9.871 7.21 12.621.742 4.861 4.929 8.485 9.885 8.485h22.808c.413 3.309.413 16.737 0 20.046h-22.81c-4.24 0-8.02 2.674-9.43 6.673-2.06 5.837-5.131 11.166-9.129 15.84-2.754 3.22-3.18 7.826-1.063 11.497l11.366 19.706c-5.332 4.04-11.175 7.415-17.328 10.007l-11.354-19.683c-2.118-3.672-6.318-5.611-10.488-4.835-6.06 1.125-12.207 1.123-18.271-.009-4.169-.776-8.378 1.161-10.497 4.835l-11.356 19.696c-6.151-2.589-11.996-5.964-17.334-10.011l11.368-19.718c2.391-4.146 1.502-9.384-2.07-12.514-1.923-2.123-6.83-10.545-7.704-13.215-.833-4.755-4.971-8.269-9.849-8.269h-22.809c-.413-3.309-.413-16.737 0-20.046h22.808c4.24 0 8.02-2.674 9.431-6.673 2.059-5.836 5.13-11.165 9.128-15.84 2.754-3.22 3.18-7.826 1.063-11.496l-11.365-19.707c5.332-4.04 11.175-7.415 17.328-10.007zm-8.368-81.936v-25h420v25z"/><path d="m502 273.22c-5.51 0-10 4.48-10 9.99 0 5.52 4.49 10 10 10s10-4.48 10-10c0-5.51-4.49-9.99-10-9.99z"/><path d="m378.472 280.701-20 42c-2.375 4.986-.258 10.954 4.729 13.328 1.389.661 2.852.974 4.293.974 3.736 0 7.322-2.104 9.035-5.703l20-42c2.375-4.986.258-10.954-4.729-13.328-4.988-2.373-10.954-.258-13.328 4.729z"/><path d="m292.5 296c-5.522 0-10 4.477-10 10s4.478 10 10 10h40c5.522 0 10-4.477 10-10s-4.478-10-10-10z"/><path d="m422 296c-5.522 0-10 4.477-10 10s4.478 10 10 10h40c5.522 0 10-4.477 10-10s-4.478-10-10-10z"/><path d="m100 350.5c16.542 0 30-13.458 30-30s-13.458-30-30-30-30 13.458-30 30 13.458 30 30 30zm0-40c5.514 0 10 4.486 10 10s-4.486 10-10 10-10-4.486-10-10 4.486-10 10-10z"/></g></svg>