<svg viewBox="0 0 512 512" xmlns="http://www.w3.org/2000/svg" xmlns:xlink="http://www.w3.org/1999/xlink"><linearGradient id="a" gradientTransform="matrix(1 0 0 -1 0 -12310)" gradientUnits="userSpaceOnUse" x1="0" x2="512" y1="-12566" y2="-12566"><stop offset="0" stop-color="#00f1ff"/><stop offset=".231" stop-color="#00d8ff"/><stop offset=".5138" stop-color="#00c0ff"/><stop offset=".7773" stop-color="#00b2ff"/><stop offset="1" stop-color="#00adff"/></linearGradient><path d="m512 256c0 141.386719-114.613281 256-256 256s-256-114.613281-256-256 114.613281-256 256-256 256 114.613281 256 256zm0 0" fill="url(#a)"/><g fill="#fff"><path d="m230.066406 317.101562c-3.820312 0-7.640625-1.449218-10.5625-4.351562-5.882812-5.835938-5.917968-15.332031-.082031-21.214844l32.160156-32.414062-133.441406-138.324219c-8.199219-8.550781-10.484375-21.066406-5.855469-31.925781 4.628906-10.855469 15.246094-17.871094 27.050782-17.871094h204.546874c32.101563 0 58.21875 26.117188 58.21875 58.21875 0 8.285156-6.714843 15-15 15-8.285156 0-15-6.714844-15-15 0-15.558594-12.660156-28.21875-28.21875-28.21875h-203.152343l142.632812 147.855469c5.664063 5.871093 5.597657 15.1875-.148437 20.980469l-42.5 42.832031c-2.933594 2.953125-6.789063 4.433593-10.648438 4.433593zm0 0"/><path d="m343.882812 441h-203.109374c-11.925782 0-22.585938-7.117188-27.160157-18.132812-4.570312-11.015626-2.085937-23.589844 6.335938-32.039063l46.867187-47.40625c5.824219-5.894531 15.320313-5.949219 21.210938-.125 5.894531 5.824219 5.945312 15.320313.125 21.214844l-45.957032 46.484375 201.6875.003906c15.558594 0 28.21875-12.660156 28.21875-28.21875 0-8.285156 6.714844-15 15-15 8.285157 0 15 6.714844 15 15 0 32.101562-26.117187 58.21875-58.21875 58.21875zm0 0"/></g></svg>